<?xml version="1.0" encoding="utf-8" standalone="yes"?><svg xmlns="http://www.w3.org/2000/svg" xmlns:xlink="http://www.w3.org/1999/xlink" version="1.1" width="816" height="1056" viewBox="0 0 816 1056"><!--Generated by Aspose.Words for .NET 18.5--><defs><clipPath id="clip1"><path d="M-1,-1 L214,-1 L214,238.550003052 L-1,238.550003052 Z" clip-rule="evenodd"></path></clipPath><clipPath id="clip10"><path d="M0,0 L1000,0 L1000,1000 L0,1000 Z" clip-rule="evenodd"></path></clipPath><clipPath id="clip11"><path d="M-1,-1 L167,-1 L167,27.180000305 L-1,27.180000305 Z" clip-rule="evenodd"></path></clipPath><clipPath id="clip12"><path d="M-1,-1 L28,-1 L28,27.180000305 L-1,27.180000305 Z" clip-rule="evenodd"></path></clipPath><clipPath id="clip13"><path d="M0,0 L20.210138321,0 L20.210138321,20.180217743 L0,20.180217743 Z" clip-rule="evenodd"></path></clipPath><clipPath id="clip14"><path d="M0,0 L1000,0 L1000,1000 L0,1000 Z" clip-rule="evenodd"></path></clipPath><clipPath id="clip15"><path d="M-1,-1 L167,-1 L167,27.180000305 L-1,27.180000305 Z" clip-rule="evenodd"></path></clipPath><clipPath id="clip16"><path d="M-1,-1 L214,-1 L214,365 L-1,365 Z" clip-rule="evenodd"></path></clipPath><clipPath id="clip17"><path d="M-1,-1 L400,-1 L400,238.550003052 L-1,238.550003052 Z" clip-rule="evenodd"></path></clipPath><clipPath id="clip18"><path d="M-1,-1 L400,-1 L400,456 L-1,456 Z" clip-rule="evenodd"></path></clipPath><clipPath id="clip2"><path d="M0,0 L35.180610657,0 L35.180610657,0.747401178 L0,0.747401178 Z" clip-rule="evenodd"></path></clipPath><clipPath id="clip3"><path d="M0,0 L1000,0 L1000,1000 L0,1000 Z" clip-rule="evenodd"></path></clipPath><clipPath id="clip4"><path d="M-1,-1 L28,-1 L28,27.180000305 L-1,27.180000305 Z" clip-rule="evenodd"></path></clipPath><clipPath id="clip5"><path d="M0,0 L20.210138321,0 L20.210138321,20.180217743 L0,20.180217743 Z" clip-rule="evenodd"></path></clipPath><clipPath id="clip6"><path d="M0,0 L1000,0 L1000,1000 L0,1000 Z" clip-rule="evenodd"></path></clipPath><clipPath id="clip7"><path d="M-1,-1 L167,-1 L167,27.180000305 L-1,27.180000305 Z" clip-rule="evenodd"></path></clipPath><clipPath id="clip8"><path d="M-1,-1 L28,-1 L28,27.180000305 L-1,27.180000305 Z" clip-rule="evenodd"></path></clipPath><clipPath id="clip9"><path d="M0,0 L20.210138321,0 L20.210138321,20.180217743 L0,20.180217743 Z" clip-rule="evenodd"></path></clipPath><style type="text/css">svg{background:white}@font-face{font-family:'Trebuchet MS';font-weight:normal;font-style:normal;src:local('Trebuchet MS'),url('https://lccontentprod.blob.core.windows.net/fonts/trebuc.woff2') format('woff2'),url('https://lccontentprod.blob.core.windows.net/fonts/trebuc.ttf') format('truetype')}@font-face{font-family:'Trebuchet MS';font-weight:bold;font-style:normal;src:local('Trebuchet MS Bold'),url('https://lccontentprod.blob.core.windows.net/fonts/trebucbd.woff2') format('woff2'),url('https://lccontentprod.blob.core.windows.net/fonts/trebucbd.ttf') format('truetype')}@font-face{font-family:'Trebuchet MS';font-weight:bold;font-style:italic;src:local('Trebuchet MS Bold Italic'),url('https://lccontentprod.blob.core.windows.net/fonts/trebucbi.woff2') format('woff2'),url('https://lccontentprod.blob.core.windows.net/fonts/trebucbi.ttf') format('truetype')}@font-face{font-family:'Trebuchet MS';font-weight:normal;font-style:italic;src:local('Trebuchet MS Italic'),url('https://lccontentprod.blob.core.windows.net/fonts/trebucit.woff2') format('woff2'),url('https://lccontentprod.blob.core.windows.net/fonts/trebucit.ttf') format('truetype')}</style></defs><g transform="scale(1.33333)"><g><path d="M0,0 L213,0 L213,790 L0,790 Z" fill="#d7f3ef" fill-rule="evenodd"></path><path d="M0,0 L213,0 L213,237.550003052 L0,237.550003052 Z" fill="#9ce1d8" fill-rule="evenodd"></path><g transform="matrix(1,0,0,1,0,0)" clip-path="url(#clip1)"><g transform="matrix(1,0,0,1,30,30)"><text><tspan x="0" y="24.799999237" font-family="Trebuchet MS" font-weight="bold" font-style="normal" font-size="30" fill="#343b30">LORA</tspan></text></g><g transform="matrix(1,0,0,1,30,61)"><text><tspan x="0" y="24.799999237" font-family="Trebuchet MS" font-weight="bold" font-style="normal" font-size="30" fill="#343b30">SMITH</tspan></text></g><g transform="matrix(1,0,0,1,30,92)"><g transform="matrix(1,0,0,1,0,16.253000259)"><g clip-path="url(#clip2)"><g transform="matrix(0.03518061,0,0,0.000747401,0,0)" clip-path="url(#clip3)"><g><path d="M0,0 L1000,0 L1000,1000 L0,1000 Z" transform="matrix(1,0,0,1,0,0)" fill="#ffffff" fill-rule="evenodd"></path><path d="M0,0 L992.907836914,0 " transform="matrix(1,0,0,47,0,0)" stroke-width="21.276596069" stroke-miterlimit="10" stroke="#595959" fill="none" fill-rule="evenodd"></path></g></g></g></g></g></g><g transform="matrix(1,0,0,1,30,119)"><g transform="matrix(1,0,0,1,0,0)" clip-path="url(#clip4)"><g transform="matrix(1,0,0,1,0,6)"><g clip-path="url(#clip5)"><g transform="matrix(0.020210138,0,0,0.020180218,0,0)" clip-path="url(#clip6)"><g><path d="M0,0 L1000,0 L1000,1000 L0,1000 Z" transform="matrix(1,0,0,1,0,0)" fill="#ffffff" fill-rule="evenodd"></path><path d="M-49.382717133,-49.382717133 L1037.037109375,-49.382717133 L1037.037109375,-49.382717133 L1037.037109375,1037.037109375 L1037.037109375,1037.037109375 L-49.382717133,1037.037109375 Z" transform="matrix(1,0,0,1,0,0)" fill="#39c3b1" fill-opacity="0.498039216" fill-rule="evenodd"></path><path d="M888.888916016,493.827178955 C888.888916016,710.551635742 710.551635742,888.888916016 493.827178955,888.888916016 L493.827178955,888.888916016 L493.827178955,888.888916016 L493.827178955,888.888916016 C277.102722168,888.888916016 98.765434265,710.551635742 98.765434265,493.827178955 L98.765434265,493.827178955 L98.765434265,493.827178955 L98.765434265,493.827178955 C98.765434265,277.102722168 277.102722168,98.765434265 493.827178955,98.765434265 L493.827178955,98.765434265 L493.827178955,98.765434265 L493.827178955,98.765434265 C710.551635742,98.765434265 888.888916016,277.102722168 888.888916016,493.827178955 " transform="matrix(1,0,0,1,0,0)" fill="#ffffff" fill-rule="evenodd"></path><path d="M888.888916016,493.827178955 C888.888916016,710.551635742 710.551635742,888.888916016 493.827178955,888.888916016 L493.827178955,888.888916016 L493.827178955,888.888916016 L493.827178955,888.888916016 C277.102722168,888.888916016 98.765434265,710.551635742 98.765434265,493.827178955 L98.765434265,493.827178955 L98.765434265,493.827178955 L98.765434265,493.827178955 C98.765434265,277.102722168 277.102722168,98.765434265 493.827178955,98.765434265 L493.827178955,98.765434265 L493.827178955,98.765434265 L493.827178955,98.765434265 C710.551635742,98.765434265 888.888916016,277.102722168 888.888916016,493.827178955 " transform="matrix(1,0,0,1,0,0)" stroke-width="37.037036896" stroke-miterlimit="10" stroke="#ffffff" fill="none" fill-rule="evenodd"></path><text transform="matrix(1,0,0,1,0,0)"><tspan x="333.936126709" y="641.975341797" font-family="Trebuchet MS" font-weight="bold" font-style="normal" font-size="543.209899902" fill="#39c3b1">@</tspan></text></g></g></g></g></g><g transform="matrix(1,0,0,1,27,0)" clip-path="url(#clip7)"><g transform="matrix(1,0,0,1,0,6)"><text><tspan x="0" y="14.390999794" font-family="Trebuchet MS" font-weight="normal" font-style="normal" font-size="12" fill="#343b30">lora.email@gmail.com</tspan></text></g></g><g transform="matrix(1,0,0,1,0,26.180000305)"><g transform="matrix(1,0,0,1,0,0)" clip-path="url(#clip8)"><g transform="matrix(1,0,0,1,0,6)"><g clip-path="url(#clip9)"><g transform="matrix(0.020210138,0,0,0.020180218,0,0)" clip-path="url(#clip10)"><g><path d="M0,0 L1000,0 L1000,1000 L0,1000 Z" transform="matrix(1,0,0,1,0,0)" fill="#ffffff" fill-rule="evenodd"></path><path d="M-49.382717133,-49.382717133 L1037.037109375,-49.382717133 L1037.037109375,-49.382717133 L1037.037109375,1037.037109375 L1037.037109375,1037.037109375 L-49.382717133,1037.037109375 Z" transform="matrix(1,0,0,1,0,0)" fill="#39c3b1" fill-opacity="0.498039216" fill-rule="evenodd"></path><path d="M888.888916016,493.827178955 C888.888916016,710.551635742 710.551635742,888.888916016 493.827178955,888.888916016 L493.827178955,888.888916016 L493.827178955,888.888916016 L493.827178955,888.888916016 C277.102722168,888.888916016 98.765434265,710.551635742 98.765434265,493.827178955 L98.765434265,493.827178955 L98.765434265,493.827178955 L98.765434265,493.827178955 C98.765434265,277.102722168 277.102722168,98.765434265 493.827178955,98.765434265 L493.827178955,98.765434265 L493.827178955,98.765434265 L493.827178955,98.765434265 C710.551635742,98.765434265 888.888916016,277.102722168 888.888916016,493.827178955 " transform="matrix(1,0,0,1,0,0)" fill="#ffffff" fill-rule="evenodd"></path><path d="M888.888916016,493.827178955 C888.888916016,710.551635742 710.551635742,888.888916016 493.827178955,888.888916016 L493.827178955,888.888916016 L493.827178955,888.888916016 L493.827178955,888.888916016 C277.102722168,888.888916016 98.765434265,710.551635742 98.765434265,493.827178955 L98.765434265,493.827178955 L98.765434265,493.827178955 L98.765434265,493.827178955 C98.765434265,277.102722168 277.102722168,98.765434265 493.827178955,98.765434265 L493.827178955,98.765434265 L493.827178955,98.765434265 L493.827178955,98.765434265 C710.551635742,98.765434265 888.888916016,277.102722168 888.888916016,493.827178955 " transform="matrix(1,0,0,1,0,0)" stroke-width="37.037036896" stroke-miterlimit="10" stroke="#ffffff" fill="none" fill-rule="evenodd"></path><text transform="matrix(1,0,0,1,0,0)"><tspan x="382.209716797" y="641.975341797" font-family="Trebuchet MS" font-weight="bold" font-style="normal" font-size="543.209899902" fill="#39c3b1">h</tspan></text></g></g></g></g></g><g transform="matrix(1,0,0,1,27,0)" clip-path="url(#clip11)"><g transform="matrix(1,0,0,1,0,6)"><text><tspan x="0" y="14.390999794" font-family="Trebuchet MS" font-weight="normal" font-style="normal" font-size="12" fill="#343b30">(123) 456-789</tspan></text></g></g></g><g transform="matrix(1,0,0,1,0,52.36000061)"><g transform="matrix(1,0,0,1,0,0)" clip-path="url(#clip12)"><g transform="matrix(1,0,0,1,0,6)"><g clip-path="url(#clip13)"><g transform="matrix(0.020210138,0,0,0.020180218,0,0)" clip-path="url(#clip14)"><g><path d="M0,0 L1000,0 L1000,1000 L0,1000 Z" transform="matrix(1,0,0,1,0,0)" fill="#ffffff" fill-rule="evenodd"></path><path d="M-49.382717133,-49.382717133 L1037.037109375,-49.382717133 L1037.037109375,-49.382717133 L1037.037109375,1037.037109375 L1037.037109375,1037.037109375 L-49.382717133,1037.037109375 Z" transform="matrix(1,0,0,1,0,0)" fill="#39c3b1" fill-opacity="0.498039216" fill-rule="evenodd"></path><path d="M888.888916016,493.827178955 C888.888916016,710.551635742 710.551635742,888.888916016 493.827178955,888.888916016 L493.827178955,888.888916016 L493.827178955,888.888916016 L493.827178955,888.888916016 C277.102722168,888.888916016 98.765434265,710.551635742 98.765434265,493.827178955 L98.765434265,493.827178955 L98.765434265,493.827178955 L98.765434265,493.827178955 C98.765434265,277.102722168 277.102722168,98.765434265 493.827178955,98.765434265 L493.827178955,98.765434265 L493.827178955,98.765434265 L493.827178955,98.765434265 C710.551635742,98.765434265 888.888916016,277.102722168 888.888916016,493.827178955 " transform="matrix(1,0,0,1,0,0)" fill="#ffffff" fill-rule="evenodd"></path><path d="M888.888916016,493.827178955 C888.888916016,710.551635742 710.551635742,888.888916016 493.827178955,888.888916016 L493.827178955,888.888916016 L493.827178955,888.888916016 L493.827178955,888.888916016 C277.102722168,888.888916016 98.765434265,710.551635742 98.765434265,493.827178955 L98.765434265,493.827178955 L98.765434265,493.827178955 L98.765434265,493.827178955 C98.765434265,277.102722168 277.102722168,98.765434265 493.827178955,98.765434265 L493.827178955,98.765434265 L493.827178955,98.765434265 L493.827178955,98.765434265 C710.551635742,98.765434265 888.888916016,277.102722168 888.888916016,493.827178955 " transform="matrix(1,0,0,1,0,0)" stroke-width="37.037036896" stroke-miterlimit="10" stroke="#ffffff" fill="none" fill-rule="evenodd"></path><text transform="matrix(1,0,0,1,0,0)"><tspan x="398.521911621" y="641.975341797" font-family="Trebuchet MS" font-weight="bold" font-style="normal" font-size="543.209899902" fill="#39c3b1">a</tspan></text></g></g></g></g></g><g transform="matrix(1,0,0,1,27,0)" clip-path="url(#clip15)"><g transform="matrix(1,0,0,1,0,6)"><text><tspan x="0" y="14.390999794" font-family="Trebuchet MS" font-weight="normal" font-style="normal" font-size="12" fill="#343b30">New York City, NY 00926</tspan></text></g></g></g></g><g transform="matrix(1,0,0,1,0,237.550003052)"><path d="M0,0 L213,0 L213,364 L0,364 Z" fill="#d7f3ef" fill-rule="evenodd"></path><g transform="matrix(1,0,0,1,0,0)" clip-path="url(#clip16)"><g transform="matrix(1,0,0,1,30,30)"><text><tspan x="0" y="15.112000465" font-family="Trebuchet MS" font-weight="bold" font-style="normal" font-size="13" fill="#343b30">SKILLS</tspan></text></g><g transform="matrix(1,0,0,1,29.5,58)"><text><tspan x="-0.5" y="13.583999634" font-family="Times New Roman" font-weight="normal" font-style="normal" font-size="9" fill="#343b30">●</tspan><tspan x="12.5" y="14.333999634" font-family="Trebuchet MS" font-weight="normal" font-style="normal" font-size="12" fill="#343b30">Posture understanding</tspan></text></g><g transform="matrix(1,0,0,1,29.5,75)"><text><tspan x="-0.5" y="13.583999634" font-family="Times New Roman" font-weight="normal" font-style="normal" font-size="9" fill="#343b30">●</tspan><tspan x="12.5" y="14.333999634" font-family="Trebuchet MS" font-weight="normal" font-style="normal" font-size="12" fill="#343b30">Safety awareness</tspan></text></g><g transform="matrix(1,0,0,1,29.5,92)"><text><tspan x="-0.5" y="13.583999634" font-family="Times New Roman" font-weight="normal" font-style="normal" font-size="9" fill="#343b30">●</tspan><tspan x="12.5" y="14.333999634" font-family="Trebuchet MS" font-weight="normal" font-style="normal" font-size="12" fill="#343b30">Class Leadership</tspan></text></g><g transform="matrix(1,0,0,1,29.5,109)"><text><tspan x="-0.5" y="13.583999634" font-family="Times New Roman" font-weight="normal" font-style="normal" font-size="9" fill="#343b30">●</tspan><tspan x="12.5" y="14.333999634" font-family="Trebuchet MS" font-weight="normal" font-style="normal" font-size="12" fill="#343b30">Teaching Expertise</tspan></text></g><g transform="matrix(1,0,0,1,29.5,126)"><text><tspan x="-0.5" y="13.583999634" font-family="Times New Roman" font-weight="normal" font-style="normal" font-size="9" fill="#343b30">●</tspan><tspan x="12.5" y="14.333999634" font-family="Trebuchet MS" font-weight="normal" font-style="normal" font-size="12" fill="#343b30">Physically fit</tspan></text></g><g transform="matrix(1,0,0,1,29.5,143)"><text><tspan x="-0.5" y="13.583999634" font-family="Times New Roman" font-weight="normal" font-style="normal" font-size="9" fill="#343b30">●</tspan><tspan x="12.5" y="14.333999634" font-family="Trebuchet MS" font-weight="normal" font-style="normal" font-size="12" fill="#343b30">Performance experience</tspan></text></g><g transform="matrix(1,0,0,1,29.5,160)"><text><tspan x="-0.5" y="13.583999634" font-family="Times New Roman" font-weight="normal" font-style="normal" font-size="9" fill="#343b30">●</tspan><tspan x="12.5" y="14.333999634" font-family="Trebuchet MS" font-weight="normal" font-style="normal" font-size="12" fill="#343b30">Instructional Techniques</tspan></text></g><g transform="matrix(1,0,0,1,29.5,177)"><text><tspan x="-0.5" y="13.583999634" font-family="Times New Roman" font-weight="normal" font-style="normal" font-size="9" fill="#343b30">●</tspan><tspan x="12.5" y="14.333999634" font-family="Trebuchet MS" font-weight="normal" font-style="normal" font-size="12" fill="#343b30">Safety Understanding</tspan></text></g><g transform="matrix(1,0,0,1,29.5,194)"><text><tspan x="-0.5" y="13.583999634" font-family="Times New Roman" font-weight="normal" font-style="normal" font-size="9" fill="#343b30">●</tspan><tspan x="12.5" y="14.333999634" font-family="Trebuchet MS" font-weight="normal" font-style="normal" font-size="12" fill="#343b30">Competitive history</tspan></text></g><g transform="matrix(1,0,0,1,30,211)"><text><tspan x="0" y="45.111999512" font-family="Trebuchet MS" font-weight="bold" font-style="normal" font-size="13" fill="#343b30">EDUCATION</tspan></text></g><g transform="matrix(1,0,0,1,30,274)"><text><tspan x="0" y="14.333999634" font-family="Trebuchet MS" font-weight="bold" font-style="normal" font-size="12" fill="#343b30">Texas A&amp;M University - </tspan><tspan x="0" y="31.333999634" font-family="Trebuchet MS" font-weight="bold" font-style="normal" font-size="12" fill="#343b30">Central Texas</tspan><tspan x="77.180000305" y="31.333999634" font-family="Trebuchet MS" font-weight="normal" font-style="normal" font-size="12" fill="#343b30"> </tspan></text></g><g transform="matrix(1,0,0,1,30,308)"><text><tspan x="0" y="14.333999634" font-family="Trebuchet MS" font-weight="normal" font-style="normal" font-size="12" fill="#343b30">Killeen, TX </tspan><tspan x="62.337001801" y="14.333999634" font-family="Trebuchet MS" font-weight="normal" font-style="normal" font-size="9" fill="#343b30"> • </tspan><tspan x="72.478996277" y="14.333999634" font-family="Trebuchet MS" font-weight="normal" font-style="normal" font-size="12" fill="#343b30"> 06/2017</tspan></text></g><g transform="matrix(1,0,0,1,30,325)"><text><tspan x="0" y="19.333999634" font-family="Trebuchet MS" font-weight="bold" font-style="italic" font-size="12" fill="#343b30">Master of Arts</tspan><tspan x="81.773002625" y="19.333999634" font-family="Trebuchet MS" font-weight="normal" font-style="normal" font-size="12" fill="#343b30">: Drama And </tspan><tspan x="0" y="36.333999634" font-family="Trebuchet MS" font-weight="normal" font-style="normal" font-size="12" fill="#343b30">Dance Teacher Education </tspan></text></g></g></g><path d="M213,0 L612,0 L612,790 L213,790 Z" fill="#ffffff" fill-rule="evenodd"></path><g transform="matrix(1,0,0,1,213,0)"><path d="M0,0 L399,0 L399,237.550003052 L0,237.550003052 Z" fill="#ebf9f7" fill-rule="evenodd"></path><g transform="matrix(1,0,0,1,0,0)" clip-path="url(#clip17)"><g transform="matrix(1,0,0,1,36,30)"><text><tspan x="0" y="69.387001038" font-family="Trebuchet MS" font-weight="bold" font-style="normal" font-size="13" fill="#343b30">PROFESSIONAL SUMMARY</tspan></text></g><g transform="matrix(1,0,0,1,36,58)"><text><tspan x="0" y="68.60900116" font-family="Trebuchet MS" font-weight="normal" font-style="normal" font-size="12" fill="#343b30">Dedicated Dance Instructor eager to work with students of </tspan><tspan x="0" y="85.60900116" font-family="Trebuchet MS" font-weight="normal" font-style="normal" font-size="12" fill="#343b30">all skill levels. Successful at helping individuals, groups and </tspan><tspan x="0" y="102.60900116" font-family="Trebuchet MS" font-weight="normal" font-style="normal" font-size="12" fill="#343b30">couples excel.</tspan></text></g></g><g transform="matrix(1,0,0,1,0,237.550003052)"><path d="M0,0 L399,0 L399,455 L0,455 Z" fill="#ffffff" fill-rule="evenodd"></path><g transform="matrix(1,0,0,1,0,0)" clip-path="url(#clip18)"><g transform="matrix(1,0,0,1,36,30)"><text><tspan x="0" y="15.112000465" font-family="Trebuchet MS" font-weight="bold" font-style="normal" font-size="13" fill="#343b30">WORK HISTORY</tspan></text></g><g transform="matrix(1,0,0,1,36,58)"><text><tspan x="0" y="14.333999634" font-family="Trebuchet MS" font-weight="bold" font-style="normal" font-size="12" fill="#343b30">DanceOn Inc.</tspan><tspan x="74.332000732" y="14.333999634" font-family="Trebuchet MS" font-weight="normal" font-style="normal" font-size="12" fill="#343b30"> - </tspan><tspan x="85.968002319" y="14.333999634" font-family="Trebuchet MS" font-weight="bold" font-style="normal" font-size="12" fill="#343b30">Dance Instructor</tspan><tspan x="179.190994263" y="14.333999634" font-family="Trebuchet MS" font-weight="normal" font-style="normal" font-size="12" fill="#343b30"> </tspan><tspan x="0" y="31.333999634" font-family="Trebuchet MS" font-weight="normal" font-style="italic" font-size="12" fill="#343b30">San Francisco</tspan><tspan x="72.42199707" y="31.333999634" font-family="Trebuchet MS" font-weight="normal" font-style="normal" font-size="12" fill="#343b30">, </tspan><tspan x="80.443000793" y="31.333999634" font-family="Trebuchet MS" font-weight="normal" font-style="italic" font-size="12" fill="#343b30">TX</tspan><tspan x="94.088996887" y="31.333999634" font-family="Trebuchet MS" font-weight="normal" font-style="normal" font-size="12" fill="#343b30"> </tspan><tspan x="97.70400238" y="31.333999634" font-family="Trebuchet MS" font-weight="normal" font-style="normal" font-size="9" fill="#343b30"> • </tspan><tspan x="107.846000671" y="31.333999634" font-family="Trebuchet MS" font-weight="normal" font-style="normal" font-size="12" fill="#343b30"> </tspan><tspan x="111.460998535" y="31.333999634" font-family="Trebuchet MS" font-weight="normal" font-style="italic" font-size="12" fill="#343b30">12/2018</tspan><tspan x="155.511993408" y="31.333999634" font-family="Trebuchet MS" font-weight="normal" font-style="normal" font-size="12" fill="#343b30"> - </tspan><tspan x="167.147994995" y="31.333999634" font-family="Trebuchet MS" font-weight="normal" font-style="italic" font-size="12" fill="#343b30">06/2020</tspan><tspan x="211.199005127" y="31.333999634" font-family="Trebuchet MS" font-weight="normal" font-style="normal" font-size="12" fill="#343b30"> </tspan></text></g><g transform="matrix(1,0,0,1,35.5,92)"><text><tspan x="-0.5" y="19.583999634" font-family="Times New Roman" font-weight="normal" font-style="normal" font-size="9" fill="#343b30">●</tspan><tspan x="12.5" y="20.333999634" font-family="Trebuchet MS" font-weight="normal" font-style="normal" font-size="12" fill="#343b30">Planned and oversaw group, couples and individual dance </tspan><tspan x="12.5" y="37.333999634" font-family="Trebuchet MS" font-weight="normal" font-style="normal" font-size="12" fill="#343b30">performances.</tspan></text></g><g transform="matrix(1,0,0,1,35.5,132)"><text><tspan x="-0.5" y="13.583999634" font-family="Times New Roman" font-weight="normal" font-style="normal" font-size="9" fill="#343b30">●</tspan><tspan x="12.5" y="14.333999634" font-family="Trebuchet MS" font-weight="normal" font-style="normal" font-size="12" fill="#343b30">Provided one-on-one instruction to students by </tspan><tspan x="12.5" y="31.333999634" font-family="Trebuchet MS" font-weight="normal" font-style="normal" font-size="12" fill="#343b30">appointment.</tspan></text></g><g transform="matrix(1,0,0,1,35.5,166)"><text><tspan x="-0.5" y="13.583999634" font-family="Times New Roman" font-weight="normal" font-style="normal" font-size="9" fill="#343b30">●</tspan><tspan x="12.5" y="14.333999634" font-family="Trebuchet MS" font-weight="normal" font-style="normal" font-size="12" fill="#343b30">Assisted with coordination and administration of complete </tspan><tspan x="12.5" y="31.333999634" font-family="Trebuchet MS" font-weight="normal" font-style="normal" font-size="12" fill="#343b30">dance program.</tspan></text></g><g transform="matrix(1,0,0,1,35.5,200)"><text><tspan x="-0.5" y="13.583999634" font-family="Times New Roman" font-weight="normal" font-style="normal" font-size="9" fill="#343b30">●</tspan><tspan x="12.5" y="14.333999634" font-family="Trebuchet MS" font-weight="normal" font-style="normal" font-size="12" fill="#343b30">Worked in team-based environment to uphold quality and </tspan><tspan x="12.5" y="31.333999634" font-family="Trebuchet MS" font-weight="normal" font-style="normal" font-size="12" fill="#343b30">continuity of service to all clients.</tspan></text></g><g transform="matrix(1,0,0,1,36,234)"><text><tspan x="0" y="25.333999634" font-family="Trebuchet MS" font-weight="bold" font-style="normal" font-size="12" fill="#343b30">Dance With Me Studios</tspan><tspan x="127.45300293" y="25.333999634" font-family="Trebuchet MS" font-weight="normal" font-style="normal" font-size="12" fill="#343b30"> - </tspan><tspan x="139.089004517" y="25.333999634" font-family="Trebuchet MS" font-weight="bold" font-style="normal" font-size="12" fill="#343b30">Dance Assistant</tspan><tspan x="226.604995728" y="25.333999634" font-family="Trebuchet MS" font-weight="normal" font-style="normal" font-size="12" fill="#343b30"> </tspan><tspan x="0" y="42.333999634" font-family="Trebuchet MS" font-weight="normal" font-style="italic" font-size="12" fill="#343b30">San Francisco</tspan><tspan x="72.42199707" y="42.333999634" font-family="Trebuchet MS" font-weight="normal" font-style="normal" font-size="12" fill="#343b30">, </tspan><tspan x="80.443000793" y="42.333999634" font-family="Trebuchet MS" font-weight="normal" font-style="italic" font-size="12" fill="#343b30">Texas</tspan><tspan x="111.028999329" y="42.333999634" font-family="Trebuchet MS" font-weight="normal" font-style="normal" font-size="12" fill="#343b30"> </tspan><tspan x="114.643997192" y="42.333999634" font-family="Trebuchet MS" font-weight="normal" font-style="normal" font-size="9" fill="#343b30"> • </tspan><tspan x="124.786003113" y="42.333999634" font-family="Trebuchet MS" font-weight="normal" font-style="normal" font-size="12" fill="#343b30"> </tspan><tspan x="128.401000977" y="42.333999634" font-family="Trebuchet MS" font-weight="normal" font-style="italic" font-size="12" fill="#343b30">10/2018</tspan><tspan x="172.45199585" y="42.333999634" font-family="Trebuchet MS" font-weight="normal" font-style="normal" font-size="12" fill="#343b30"> - </tspan><tspan x="184.087997437" y="42.333999634" font-family="Trebuchet MS" font-weight="normal" font-style="italic" font-size="12" fill="#343b30">06/2020</tspan><tspan x="228.139007568" y="42.333999634" font-family="Trebuchet MS" font-weight="normal" font-style="normal" font-size="12" fill="#343b30"> </tspan></text></g><g transform="matrix(1,0,0,1,35.5,279)"><text><tspan x="-0.5" y="19.583999634" font-family="Times New Roman" font-weight="normal" font-style="normal" font-size="9" fill="#343b30">●</tspan><tspan x="12.5" y="20.333999634" font-family="Trebuchet MS" font-weight="normal" font-style="normal" font-size="12" fill="#343b30">Developed professional relationships with different dance </tspan><tspan x="12.5" y="37.333999634" font-family="Trebuchet MS" font-weight="normal" font-style="normal" font-size="12" fill="#343b30">professionals, choreographers and performers by actively </tspan><tspan x="12.5" y="54.333999634" font-family="Trebuchet MS" font-weight="normal" font-style="normal" font-size="12" fill="#343b30">listening and effectively communicating.</tspan></text></g><g transform="matrix(1,0,0,1,35.5,336)"><text><tspan x="-0.5" y="13.583999634" font-family="Times New Roman" font-weight="normal" font-style="normal" font-size="9" fill="#343b30">●</tspan><tspan x="12.5" y="14.333999634" font-family="Trebuchet MS" font-weight="normal" font-style="normal" font-size="12" fill="#343b30">Sang and danced as part of creative ensembles and </tspan><tspan x="12.5" y="31.333999634" font-family="Trebuchet MS" font-weight="normal" font-style="normal" font-size="12" fill="#343b30">troupes for dramatic and comedic performances.</tspan></text></g><g transform="matrix(1,0,0,1,35.5,370)"><text><tspan x="-0.5" y="13.583999634" font-family="Times New Roman" font-weight="normal" font-style="normal" font-size="9" fill="#343b30">●</tspan><tspan x="12.5" y="14.333999634" font-family="Trebuchet MS" font-weight="normal" font-style="normal" font-size="12" fill="#343b30">Picked up choreography moves easily and immediately </tspan><tspan x="12.5" y="31.333999634" font-family="Trebuchet MS" font-weight="normal" font-style="normal" font-size="12" fill="#343b30">incorporated changes in choreography or new moves by </tspan><tspan x="12.5" y="48.333999634" font-family="Trebuchet MS" font-weight="normal" font-style="normal" font-size="12" fill="#343b30">staying flexible.</tspan></text></g><g transform="matrix(1,0,0,1,35.5,421)"><text><tspan x="-0.5" y="13.583999634" font-family="Times New Roman" font-weight="normal" font-style="normal" font-size="9" fill="#343b30">●</tspan><tspan x="12.5" y="14.333999634" font-family="Trebuchet MS" font-weight="normal" font-style="normal" font-size="12" fill="#343b30">Coordinated with choreographers to enhance and refine </tspan><tspan x="12.5" y="31.333999634" font-family="Trebuchet MS" font-weight="normal" font-style="normal" font-size="12" fill="#343b30">movements to properly enact intended vision.</tspan></text></g></g></g></g><g transform="matrix(1,0,0,1,0,790)"><text><tspan x="0" y="0.077" font-family="Times New Roman" font-weight="normal" font-style="normal" font-size="1" fill="#ffffff">.</tspan></text></g></g></g></svg>